# xmcd
#
# Track frame offsets: 
#        150
#        19437
#        45477
#        63972
#        83195
#        101547
#        119402
#        138492
#        156432
#        174635
#        192575
#        210360
#        228090
#
# Disc length: 3296 seconds
#
# Revision: 5
# Processed by: cddbd v1.5.2PL0 Copyright (c) Steve Scherf et al.
# Submitted via: ExactAudioCopy v0.99pb3
#
DISCID=b00cde0d
DTITLE=Various Artist - KYOT 95.5 Smooth Jazz Sampler 2003 - Vol 9
DYEAR=2003
DGENRE=Jazz
TTITLE0=Gato Barbieri - Europa
TTITLE1=Earth, Wind and Fire - That's The Way of The World
TTITLE2=Kenny G - G-Bop
TTITLE3=US 3 - Cantaloop
TTITLE4=Sade - Paradise
TTITLE5=Dave Koz - Love Is On The Way
TTITLE6=David Benoit - Freedom at Midnight
TTITLE7=Spyro Gyra - Morning Dance
TTITLE8=Marvin Gaye - Sexual Healing
TTITLE9=David Sanborn - Spooky
TTITLE10=Boney James - Sweet Thing
TTITLE11=Anita Baker - Giving You The Best That I Got
TTITLE12=Boz Skaggs - Lowdown
EXTD=YEAR: 2003
EXTT0=
EXTT1=
EXTT2=
EXTT3=
EXTT4=
EXTT5=
EXTT6=
EXTT7=
EXTT8=
EXTT9=
EXTT10=
EXTT11=
EXTT12=
PLAYORDER=
